<svg width="184" height="160" viewBox="0 0 184 160" fill="none" xmlns="http://www.w3.org/2000/svg">
<g clip-path="url(#clip0_287_27714)">
<path d="M181.584 157.712C181.266 158.156 180.945 158.598 180.627 159.036C179.712 159.666 178.628 160.002 177.518 160H6.4832C5.42246 160.001 4.38421 159.694 3.49416 159.117C3.19877 158.728 2.90671 158.335 2.61133 157.942L2.90671 157.78L89.4917 109.786C90.26 109.362 91.1233 109.138 92.0013 109.137C92.8792 109.136 93.7431 109.357 94.5125 109.78L181.292 157.55L181.584 157.712Z" fill="#138ba9"/>
<path d="M177.517 56.7951L102.476 13.4587C99.3199 11.6359 95.7398 10.6755 92.0951 10.6737C88.4504 10.6719 84.8694 11.6288 81.7114 13.4484L6.48209 56.7951C5.01946 56.7972 3.61733 57.3791 2.5831 58.4133C1.54886 59.4476 0.966913 60.8497 0.964844 62.3123V154.483C0.966548 155.945 1.54837 157.348 2.58269 158.382C3.617 159.416 5.01934 159.998 6.48209 160H177.517C178.979 159.997 180.381 159.415 181.415 158.381C182.449 157.347 183.031 155.945 183.034 154.483V62.3123C183.032 60.8497 182.45 59.4476 181.416 58.4133C180.381 57.3791 178.979 56.7972 177.517 56.7951ZM182.385 154.483C182.382 155.773 181.868 157.009 180.955 157.922C180.043 158.834 178.807 159.348 177.517 159.351H6.48209C5.19168 159.349 3.9548 158.835 3.04235 157.922C2.12989 157.01 1.61625 155.773 1.61393 154.483V62.3123C1.6155 61.0217 2.1289 59.7844 3.04151 58.8718C3.95413 57.9592 5.19145 57.4458 6.48209 57.4442L81.7114 14.0975C84.8694 12.2779 88.4504 11.321 92.0951 11.3228C95.7398 11.3246 99.3199 12.285 102.476 14.1078L177.517 57.4442C178.807 57.4458 180.045 57.9592 180.957 58.8718C181.87 59.7844 182.383 61.0217 182.385 62.3123V154.483Z" fill="#3F3D56"/>
<path d="M92.099 108.943C91.5337 108.945 90.9722 108.851 90.4386 108.664L90.3404 108.63L90.3205 108.411C90.2594 108.441 90.1976 108.47 90.1358 108.497L90.0705 108.526L90.0052 108.497C89.8684 108.437 89.7326 108.369 89.6016 108.295L29.8516 74.7204V6.16626C29.8533 4.57443 30.4865 3.04831 31.6121 1.92272C32.7377 0.79713 34.2638 0.163988 35.8556 0.162201H148.148C149.74 0.163988 151.266 0.79713 152.391 1.92272C153.517 3.04831 154.15 4.57443 154.152 6.16626V74.808L154.069 74.8546L94.5964 108.296C93.8329 108.721 92.9731 108.944 92.099 108.943Z" fill="white"/>
<path d="M92.0991 109.105C91.5155 109.107 90.9359 109.01 90.3849 108.817L90.1884 108.748L90.18 108.655L90.0706 108.703L89.9401 108.646C89.7984 108.584 89.6578 108.513 89.5221 108.437L29.6895 74.8155V6.16627C29.6913 4.53142 30.3416 2.96407 31.4976 1.80806C32.6536 0.65205 34.2209 0.00178922 35.8558 -6.10352e-05H148.148C149.783 0.00179607 151.35 0.652057 152.506 1.80807C153.662 2.96407 154.312 4.53143 154.314 6.16627V74.903L94.6761 108.437C93.8883 108.876 93.0011 109.106 92.0991 109.105ZM90.7966 108.269C91.9898 108.611 93.27 108.468 94.3583 107.871L153.665 74.5233V6.16627C153.663 4.70351 153.082 3.30113 152.047 2.26681C151.013 1.23248 149.611 0.650673 148.148 0.649026H35.8558C34.393 0.650666 32.9906 1.23247 31.9563 2.2668C30.922 3.30113 30.3402 4.70351 30.3385 6.16627V74.4355L34.2297 76.6208L89.8404 107.871C89.9161 107.914 89.9929 107.954 90.0708 107.992C90.1488 107.954 90.2255 107.914 90.301 107.871L90.7381 107.625L90.7966 108.269Z" fill="#3F3D56"/>
<path d="M181.599 59.1902L158.047 72.4316L153.99 74.7131L94.5172 108.154C93.7781 108.566 92.9456 108.782 92.0993 108.78C91.5525 108.782 91.0093 108.691 90.4929 108.511C90.3493 108.465 90.2084 108.411 90.0709 108.349C89.938 108.29 89.8082 108.225 89.6816 108.154L34.071 76.9038L30.0142 74.6255L2.45399 59.1383C2.37905 59.0953 2.32408 59.0245 2.30099 58.9413C2.27791 58.858 2.28858 58.7691 2.3307 58.6936C2.37293 58.6188 2.44312 58.5638 2.52586 58.5407C2.6086 58.5176 2.69714 58.5282 2.77203 58.5703L30.0142 73.879L34.071 76.1573L89.9996 107.586C90.1851 107.69 90.3782 107.78 90.5772 107.855C90.6617 107.888 90.7493 107.917 90.837 107.943C91.3925 108.114 91.9767 108.17 92.5546 108.109C93.1324 108.047 93.6919 107.869 94.1992 107.586L153.99 73.9699L158.047 71.6884L181.281 58.6255C181.318 58.6046 181.359 58.5912 181.401 58.5861C181.443 58.581 181.486 58.5843 181.527 58.5957C181.568 58.6072 181.606 58.6266 181.64 58.6529C181.673 58.6791 181.701 58.7117 181.722 58.7488C181.743 58.7859 181.756 58.8267 181.761 58.869C181.766 58.9112 181.763 58.954 181.752 58.995C181.74 59.036 181.721 59.0743 181.695 59.1078C181.668 59.1413 181.636 59.1693 181.599 59.1902Z" fill="#3F3D56"/>
<path d="M54.2168 21.4198H45.1296C44.441 21.4198 43.7806 21.1463 43.2937 20.6594C42.8067 20.1724 42.5332 19.5121 42.5332 18.8235C42.5332 18.1349 42.8067 17.4745 43.2937 16.9876C43.7806 16.5007 44.441 16.2271 45.1296 16.2271H54.2168C54.9054 16.2271 55.5658 16.5007 56.0527 16.9876C56.5396 17.4745 56.8131 18.1349 56.8131 18.8235C56.8131 19.5121 56.5396 20.1724 56.0527 20.6594C55.5658 21.1463 54.9054 21.4198 54.2168 21.4198Z" fill="#138ba9"/>
<path d="M64.9267 30.1825H45.1296C44.441 30.1825 43.7806 29.9089 43.2937 29.422C42.8067 28.9351 42.5332 28.2747 42.5332 27.5861C42.5332 26.8975 42.8067 26.2371 43.2937 25.7502C43.7806 25.2633 44.441 24.9898 45.1296 24.9898H64.9267C65.6153 24.9898 66.2757 25.2633 66.7626 25.7502C67.2495 26.2371 67.5231 26.8975 67.5231 27.5861C67.5231 28.2747 67.2495 28.9351 66.7626 29.422C66.2757 29.9089 65.6153 30.1825 64.9267 30.1825Z" fill="#E6E6E6"/>
<path d="M120.238 53.5495H64.0924C63.4038 53.5495 62.7435 53.276 62.2565 52.7891C61.7696 52.3022 61.4961 51.6418 61.4961 50.9532C61.4961 50.2646 61.7696 49.6042 62.2565 49.1173C62.7435 48.6304 63.4038 48.3568 64.0924 48.3568H120.238C120.927 48.3568 121.587 48.6304 122.074 49.1173C122.561 49.6042 122.835 50.2646 122.835 50.9532C122.835 51.6418 122.561 52.3022 122.074 52.7891C121.587 53.276 120.927 53.5495 120.238 53.5495Z" fill="#138ba9"/>
<path d="M125.426 63.6104H58.57C57.8814 63.6104 57.221 63.3369 56.7341 62.85C56.2472 62.3631 55.9736 61.7027 55.9736 61.0141C55.9736 60.3255 56.2472 59.6651 56.7341 59.1782C57.221 58.6913 57.8814 58.4177 58.57 58.4177H125.426C126.115 58.4177 126.775 58.6913 127.262 59.1782C127.749 59.6651 128.022 60.3255 128.022 61.0141C128.022 61.7027 127.749 62.3631 127.262 62.85C126.775 63.3369 126.115 63.6104 125.426 63.6104Z" fill="#E6E6E6"/>
<path d="M125.426 73.3468H58.57C57.8814 73.3468 57.221 73.0732 56.7341 72.5863C56.2472 72.0994 55.9736 71.439 55.9736 70.7504C55.9736 70.0618 56.2472 69.4014 56.7341 68.9145C57.221 68.4276 57.8814 68.1541 58.57 68.1541H125.426C126.115 68.1541 126.775 68.4276 127.262 68.9145C127.749 69.4014 128.022 70.0618 128.022 70.7504C128.022 71.439 127.749 72.0994 127.262 72.5863C126.775 73.0732 126.115 73.3468 125.426 73.3468Z" fill="#E6E6E6"/>
</g>
<defs>
<clipPath id="clip0_287_27714">
<rect width="182.069" height="160" fill="white" transform="translate(0.96582)"/>
</clipPath>
</defs>
</svg>
